# xmcd
#
# Track frame offsets:
#   150
#   12993
#   26108
#   36914
#   48799
#   60381
#   73621
#   86990
#   98754
#   111597
#   123928
#   135817
#   147114
#   159104
#   171331
#   181409
#   193897
#   205438
#   216268
#   226074
#   237636
#   247884
#
# Disc length: 3489 seconds
#
# Revision: 0
# Processed by: cddbd v1.4PL0 Copyright (c) Steve Scherf et al.
# Submitted via: uFREEDB 1.6.0
#
DISCID=360d9f16
DTITLE=Reeves, Jim - Country Classics, Vol. 1
DYEAR=1900
DGENRE=Country
TTITLE0=I Love You Because
TTITLE1=Distant Drums
TTITLE2=He'll Have To Go
TTITLE3=Welcome To My World
TTITLE4=My Happiness
TTITLE5=Have I Told You Lately That I Love You
TTITLE6=You'll Never Know
TTITLE7=Carolina Moon
TTITLE8=I Can't Stop Loving You
TTITLE9=Maria Elena
TTITLE10=You Belong To Me
TTITLE11=Moonlight And Roses
TTITLE12=Have You Ever Been Lonely
TTITLE13=Mona Lisa
TTITLE14=Charmaine
TTITLE15=Blue Skies
TTITLE16=Moon River
TTITLE17=Memories Are Made Of This
TTITLE18=Ramona
TTITLE19=Mexicali Rose
TTITLE20=A Fool Such As I
TTITLE21=Auf Wiederseh'n Sweetheart
EXTD=
EXTT0=
EXTT1=
EXTT2=
EXTT3=
EXTT4=
EXTT5=
EXTT6=
EXTT7=
EXTT8=
EXTT9=
EXTT10=
EXTT11=
EXTT12=
EXTT13=
EXTT14=
EXTT15=
EXTT16=
EXTT17=
EXTT18=
EXTT19=
EXTT20=
EXTT21=
PLAYORDER=
